%TF.GenerationSoftware,KiCad,Pcbnew,6.0.2+dfsg-1*%
%TF.CreationDate,2023-11-28T02:04:47+03:00*%
%TF.ProjectId,servodriver,73657276-6f64-4726-9976-65722e6b6963,rev?*%
%TF.SameCoordinates,Original*%
%TF.FileFunction,Soldermask,Top*%
%TF.FilePolarity,Negative*%
%FSLAX46Y46*%
G04 Gerber Fmt 4.6, Leading zero omitted, Abs format (unit mm)*
G04 Created by KiCad (PCBNEW 6.0.2+dfsg-1) date 2023-11-28 02:04:47*
%MOMM*%
%LPD*%
G01*
G04 APERTURE LIST*
G04 Aperture macros list*
%AMRoundRect*
0 Rectangle with rounded corners*
0 $1 Rounding radius*
0 $2 $3 $4 $5 $6 $7 $8 $9 X,Y pos of 4 corners*
0 Add a 4 corners polygon primitive as box body*
4,1,4,$2,$3,$4,$5,$6,$7,$8,$9,$2,$3,0*
0 Add four circle primitives for the rounded corners*
1,1,$1+$1,$2,$3*
1,1,$1+$1,$4,$5*
1,1,$1+$1,$6,$7*
1,1,$1+$1,$8,$9*
0 Add four rect primitives between the rounded corners*
20,1,$1+$1,$2,$3,$4,$5,0*
20,1,$1+$1,$4,$5,$6,$7,0*
20,1,$1+$1,$6,$7,$8,$9,0*
20,1,$1+$1,$8,$9,$2,$3,0*%
G04 Aperture macros list end*
%ADD10C,4.000000*%
%ADD11RoundRect,0.200000X0.200000X0.275000X-0.200000X0.275000X-0.200000X-0.275000X0.200000X-0.275000X0*%
%ADD12R,2.000000X2.000000*%
%ADD13C,2.000000*%
%ADD14RoundRect,0.225000X-0.225000X-0.250000X0.225000X-0.250000X0.225000X0.250000X-0.225000X0.250000X0*%
%ADD15R,2.500000X2.300000*%
%ADD16R,1.700000X1.700000*%
%ADD17O,1.700000X1.700000*%
%ADD18RoundRect,0.250001X-1.099999X1.099999X-1.099999X-1.099999X1.099999X-1.099999X1.099999X1.099999X0*%
%ADD19C,2.700000*%
%ADD20RoundRect,0.250001X-1.099999X-1.099999X1.099999X-1.099999X1.099999X1.099999X-1.099999X1.099999X0*%
%ADD21R,2.400000X2.400000*%
%ADD22O,2.400000X2.400000*%
%ADD23RoundRect,0.250001X1.099999X1.099999X-1.099999X1.099999X-1.099999X-1.099999X1.099999X-1.099999X0*%
%ADD24R,1.800000X1.800000*%
%ADD25O,1.800000X1.800000*%
%ADD26RoundRect,0.200000X0.275000X-0.200000X0.275000X0.200000X-0.275000X0.200000X-0.275000X-0.200000X0*%
%ADD27RoundRect,0.250001X1.099999X-1.099999X1.099999X1.099999X-1.099999X1.099999X-1.099999X-1.099999X0*%
%ADD28RoundRect,0.250000X-0.325000X-0.650000X0.325000X-0.650000X0.325000X0.650000X-0.325000X0.650000X0*%
%ADD29RoundRect,0.225000X0.250000X-0.225000X0.250000X0.225000X-0.250000X0.225000X-0.250000X-0.225000X0*%
%ADD30R,1.800000X2.500000*%
G04 APERTURE END LIST*
D10*
%TO.C,REF\u002A\u002A*%
X210820000Y-55420000D03*
X185420000Y-55420000D03*
%TD*%
%TO.C,REF\u002A\u002A*%
X168910000Y-55420000D03*
X143510000Y-55420000D03*
%TD*%
%TO.C,REF\u002A\u002A*%
X127000000Y-55420000D03*
X101600000Y-55420000D03*
%TD*%
D11*
%TO.C,R20*%
X133350000Y-43155000D03*
X131700000Y-43155000D03*
%TD*%
D12*
%TO.C,C6*%
X174274646Y-60800000D03*
D13*
X174274646Y-65800000D03*
%TD*%
D14*
%TO.C,C3*%
X158259646Y-72230000D03*
X159809646Y-72230000D03*
%TD*%
D15*
%TO.C,D4*%
X158644646Y-93820000D03*
X154344646Y-93820000D03*
%TD*%
D16*
%TO.C,J14*%
X194594646Y-76040000D03*
D17*
X197134646Y-76040000D03*
%TD*%
D16*
%TO.C,J10*%
X214630000Y-41910000D03*
D17*
X217170000Y-41910000D03*
X219710000Y-41910000D03*
X222250000Y-41910000D03*
X224790000Y-41910000D03*
%TD*%
D15*
%TO.C,D16*%
X97051365Y-93679511D03*
X101351365Y-93679511D03*
%TD*%
D18*
%TO.C,J4*%
X223520000Y-86360000D03*
D19*
X223520000Y-91360000D03*
%TD*%
D15*
%TO.C,D7*%
X143404646Y-86200000D03*
X139104646Y-86200000D03*
%TD*%
D20*
%TO.C,J5*%
X88980000Y-43900000D03*
D19*
X93980000Y-43900000D03*
%TD*%
D16*
%TO.C,J12*%
X82550000Y-67310000D03*
D17*
X82550000Y-69850000D03*
%TD*%
D15*
%TO.C,D9*%
X200554646Y-93820000D03*
X196254646Y-93820000D03*
%TD*%
D16*
%TO.C,J13*%
X152684646Y-76040000D03*
D17*
X155224646Y-76040000D03*
%TD*%
D15*
%TO.C,D15*%
X112291365Y-86059511D03*
X116591365Y-86059511D03*
%TD*%
D14*
%TO.C,C15*%
X116206365Y-72089511D03*
X117756365Y-72089511D03*
%TD*%
D16*
%TO.C,J7*%
X179070000Y-41910000D03*
D17*
X181610000Y-41910000D03*
X184150000Y-41910000D03*
X186690000Y-41910000D03*
X189230000Y-41910000D03*
%TD*%
D16*
%TO.C,J6*%
X81280000Y-88900000D03*
D17*
X81280000Y-91440000D03*
X81280000Y-93980000D03*
%TD*%
D15*
%TO.C,D17*%
X101351365Y-86059511D03*
X97051365Y-86059511D03*
%TD*%
%TO.C,D5*%
X154344646Y-86200000D03*
X158644646Y-86200000D03*
%TD*%
D11*
%TO.C,R12*%
X209075000Y-43205000D03*
X207425000Y-43205000D03*
%TD*%
D12*
%TO.C,C18*%
X132221365Y-60659511D03*
D13*
X132221365Y-65659511D03*
%TD*%
D15*
%TO.C,D14*%
X116591365Y-93679511D03*
X112291365Y-93679511D03*
%TD*%
D21*
%TO.C,D1*%
X224790000Y-64770000D03*
D22*
X224790000Y-77470000D03*
%TD*%
D23*
%TO.C,J1*%
X151274646Y-106520000D03*
D19*
X146274646Y-106520000D03*
%TD*%
D23*
%TO.C,J2*%
X109361365Y-106379511D03*
D19*
X104361365Y-106379511D03*
%TD*%
D14*
%TO.C,C9*%
X200169646Y-72230000D03*
X201719646Y-72230000D03*
%TD*%
D24*
%TO.C,U2*%
X189230000Y-68580000D03*
D25*
X190500000Y-63500000D03*
X191770000Y-68580000D03*
X193040000Y-63500000D03*
X194310000Y-68580000D03*
X195580000Y-63500000D03*
X196850000Y-68580000D03*
X198120000Y-63500000D03*
X199390000Y-68580000D03*
X200660000Y-63500000D03*
X201930000Y-68580000D03*
X203200000Y-63500000D03*
X204470000Y-68580000D03*
X205740000Y-63500000D03*
X207010000Y-68580000D03*
%TD*%
D26*
%TO.C,R1*%
X85090000Y-97345000D03*
X85090000Y-95695000D03*
%TD*%
%TO.C,R3*%
X90170000Y-97345000D03*
X90170000Y-95695000D03*
%TD*%
D16*
%TO.C,J15*%
X110631365Y-75899511D03*
D17*
X113171365Y-75899511D03*
%TD*%
D24*
%TO.C,U1*%
X147320000Y-68580000D03*
D25*
X148590000Y-63500000D03*
X149860000Y-68580000D03*
X151130000Y-63500000D03*
X152400000Y-68580000D03*
X153670000Y-63500000D03*
X154940000Y-68580000D03*
X156210000Y-63500000D03*
X157480000Y-68580000D03*
X158750000Y-63500000D03*
X160020000Y-68580000D03*
X161290000Y-63500000D03*
X162560000Y-68580000D03*
X163830000Y-63500000D03*
X165100000Y-68580000D03*
%TD*%
D27*
%TO.C,J11*%
X83270000Y-81017500D03*
D19*
X83270000Y-76017500D03*
%TD*%
D15*
%TO.C,D12*%
X185314646Y-86200000D03*
X181014646Y-86200000D03*
%TD*%
%TO.C,D10*%
X196254646Y-86200000D03*
X200554646Y-86200000D03*
%TD*%
D16*
%TO.C,J9*%
X137190000Y-41885000D03*
D17*
X139730000Y-41885000D03*
X142270000Y-41885000D03*
X144810000Y-41885000D03*
X147350000Y-41885000D03*
%TD*%
D24*
%TO.C,U3*%
X105266719Y-68439511D03*
D25*
X106536719Y-63359511D03*
X107806719Y-68439511D03*
X109076719Y-63359511D03*
X110346719Y-68439511D03*
X111616719Y-63359511D03*
X112886719Y-68439511D03*
X114156719Y-63359511D03*
X115426719Y-68439511D03*
X116696719Y-63359511D03*
X117966719Y-68439511D03*
X119236719Y-63359511D03*
X120506719Y-68439511D03*
X121776719Y-63359511D03*
X123046719Y-68439511D03*
%TD*%
D28*
%TO.C,C1*%
X90045000Y-60960000D03*
X92995000Y-60960000D03*
%TD*%
D11*
%TO.C,R4*%
X175037500Y-43180000D03*
X173387500Y-43180000D03*
%TD*%
D29*
%TO.C,C17*%
X137160000Y-57925000D03*
X137160000Y-56375000D03*
%TD*%
%TO.C,C5*%
X179070000Y-58700000D03*
X179070000Y-57150000D03*
%TD*%
D23*
%TO.C,J3*%
X192784646Y-106520000D03*
D19*
X187784646Y-106520000D03*
%TD*%
D23*
%TO.C,J8*%
X91440000Y-106680000D03*
D19*
X86440000Y-106680000D03*
X81440000Y-106680000D03*
%TD*%
D12*
%TO.C,C12*%
X216184646Y-60800000D03*
D13*
X216184646Y-65800000D03*
%TD*%
D29*
%TO.C,C11*%
X223520000Y-57925000D03*
X223520000Y-56375000D03*
%TD*%
D15*
%TO.C,D11*%
X181014646Y-93820000D03*
X185314646Y-93820000D03*
%TD*%
D26*
%TO.C,R2*%
X87630000Y-97345000D03*
X87630000Y-95695000D03*
%TD*%
D30*
%TO.C,D2*%
X86440000Y-60420000D03*
X86440000Y-56420000D03*
%TD*%
D15*
%TO.C,D6*%
X139104646Y-93820000D03*
X143404646Y-93820000D03*
%TD*%
M02*
