%TF.GenerationSoftware,KiCad,Pcbnew,6.0.2+dfsg-1*%
%TF.CreationDate,2023-11-28T02:04:47+03:00*%
%TF.ProjectId,servodriver,73657276-6f64-4726-9976-65722e6b6963,rev?*%
%TF.SameCoordinates,Original*%
%TF.FileFunction,Soldermask,Bot*%
%TF.FilePolarity,Negative*%
%FSLAX46Y46*%
G04 Gerber Fmt 4.6, Leading zero omitted, Abs format (unit mm)*
G04 Created by KiCad (PCBNEW 6.0.2+dfsg-1) date 2023-11-28 02:04:47*
%MOMM*%
%LPD*%
G01*
G04 APERTURE LIST*
G04 Aperture macros list*
%AMRoundRect*
0 Rectangle with rounded corners*
0 $1 Rounding radius*
0 $2 $3 $4 $5 $6 $7 $8 $9 X,Y pos of 4 corners*
0 Add a 4 corners polygon primitive as box body*
4,1,4,$2,$3,$4,$5,$6,$7,$8,$9,$2,$3,0*
0 Add four circle primitives for the rounded corners*
1,1,$1+$1,$2,$3*
1,1,$1+$1,$4,$5*
1,1,$1+$1,$6,$7*
1,1,$1+$1,$8,$9*
0 Add four rect primitives between the rounded corners*
20,1,$1+$1,$2,$3,$4,$5,0*
20,1,$1+$1,$4,$5,$6,$7,0*
20,1,$1+$1,$6,$7,$8,$9,0*
20,1,$1+$1,$8,$9,$2,$3,0*%
G04 Aperture macros list end*
%ADD10C,4.000000*%
%ADD11R,2.000000X2.000000*%
%ADD12C,2.000000*%
%ADD13R,1.700000X1.700000*%
%ADD14O,1.700000X1.700000*%
%ADD15RoundRect,0.250001X-1.099999X1.099999X-1.099999X-1.099999X1.099999X-1.099999X1.099999X1.099999X0*%
%ADD16C,2.700000*%
%ADD17RoundRect,0.250001X-1.099999X-1.099999X1.099999X-1.099999X1.099999X1.099999X-1.099999X1.099999X0*%
%ADD18R,2.400000X2.400000*%
%ADD19O,2.400000X2.400000*%
%ADD20RoundRect,0.250001X1.099999X1.099999X-1.099999X1.099999X-1.099999X-1.099999X1.099999X-1.099999X0*%
%ADD21R,1.800000X1.800000*%
%ADD22O,1.800000X1.800000*%
%ADD23RoundRect,0.250001X1.099999X-1.099999X1.099999X1.099999X-1.099999X1.099999X-1.099999X-1.099999X0*%
%ADD24RoundRect,0.225000X-0.250000X0.225000X-0.250000X-0.225000X0.250000X-0.225000X0.250000X0.225000X0*%
%ADD25RoundRect,0.200000X0.200000X0.275000X-0.200000X0.275000X-0.200000X-0.275000X0.200000X-0.275000X0*%
%ADD26RoundRect,0.225000X0.225000X0.250000X-0.225000X0.250000X-0.225000X-0.250000X0.225000X-0.250000X0*%
%ADD27RoundRect,0.200000X-0.275000X0.200000X-0.275000X-0.200000X0.275000X-0.200000X0.275000X0.200000X0*%
%ADD28RoundRect,0.200000X0.275000X-0.200000X0.275000X0.200000X-0.275000X0.200000X-0.275000X-0.200000X0*%
%ADD29RoundRect,0.225000X-0.225000X-0.250000X0.225000X-0.250000X0.225000X0.250000X-0.225000X0.250000X0*%
%ADD30RoundRect,0.150000X-0.150000X0.825000X-0.150000X-0.825000X0.150000X-0.825000X0.150000X0.825000X0*%
%ADD31RoundRect,0.250000X0.362500X1.425000X-0.362500X1.425000X-0.362500X-1.425000X0.362500X-1.425000X0*%
G04 APERTURE END LIST*
D10*
%TO.C,REF\u002A\u002A*%
X210820000Y-55420000D03*
X185420000Y-55420000D03*
%TD*%
%TO.C,REF\u002A\u002A*%
X168910000Y-55420000D03*
X143510000Y-55420000D03*
%TD*%
%TO.C,REF\u002A\u002A*%
X127000000Y-55420000D03*
X101600000Y-55420000D03*
%TD*%
D11*
%TO.C,C6*%
X174274646Y-60800000D03*
D12*
X174274646Y-65800000D03*
%TD*%
D13*
%TO.C,J14*%
X194594646Y-76040000D03*
D14*
X197134646Y-76040000D03*
%TD*%
D13*
%TO.C,J10*%
X214630000Y-41910000D03*
D14*
X217170000Y-41910000D03*
X219710000Y-41910000D03*
X222250000Y-41910000D03*
X224790000Y-41910000D03*
%TD*%
D15*
%TO.C,J4*%
X223520000Y-86360000D03*
D16*
X223520000Y-91360000D03*
%TD*%
D17*
%TO.C,J5*%
X88980000Y-43900000D03*
D16*
X93980000Y-43900000D03*
%TD*%
D13*
%TO.C,J12*%
X82550000Y-67310000D03*
D14*
X82550000Y-69850000D03*
%TD*%
D13*
%TO.C,J13*%
X152684646Y-76040000D03*
D14*
X155224646Y-76040000D03*
%TD*%
D13*
%TO.C,J7*%
X179070000Y-41910000D03*
D14*
X181610000Y-41910000D03*
X184150000Y-41910000D03*
X186690000Y-41910000D03*
X189230000Y-41910000D03*
%TD*%
D13*
%TO.C,J6*%
X81280000Y-88900000D03*
D14*
X81280000Y-91440000D03*
X81280000Y-93980000D03*
%TD*%
D11*
%TO.C,C18*%
X132221365Y-60659511D03*
D12*
X132221365Y-65659511D03*
%TD*%
D18*
%TO.C,D1*%
X224790000Y-64770000D03*
D19*
X224790000Y-77470000D03*
%TD*%
D20*
%TO.C,J1*%
X151274646Y-106520000D03*
D16*
X146274646Y-106520000D03*
%TD*%
D20*
%TO.C,J2*%
X109361365Y-106379511D03*
D16*
X104361365Y-106379511D03*
%TD*%
D21*
%TO.C,U2*%
X189230000Y-68580000D03*
D22*
X190500000Y-63500000D03*
X191770000Y-68580000D03*
X193040000Y-63500000D03*
X194310000Y-68580000D03*
X195580000Y-63500000D03*
X196850000Y-68580000D03*
X198120000Y-63500000D03*
X199390000Y-68580000D03*
X200660000Y-63500000D03*
X201930000Y-68580000D03*
X203200000Y-63500000D03*
X204470000Y-68580000D03*
X205740000Y-63500000D03*
X207010000Y-68580000D03*
%TD*%
D13*
%TO.C,J15*%
X110631365Y-75899511D03*
D14*
X113171365Y-75899511D03*
%TD*%
D21*
%TO.C,U1*%
X147320000Y-68580000D03*
D22*
X148590000Y-63500000D03*
X149860000Y-68580000D03*
X151130000Y-63500000D03*
X152400000Y-68580000D03*
X153670000Y-63500000D03*
X154940000Y-68580000D03*
X156210000Y-63500000D03*
X157480000Y-68580000D03*
X158750000Y-63500000D03*
X160020000Y-68580000D03*
X161290000Y-63500000D03*
X162560000Y-68580000D03*
X163830000Y-63500000D03*
X165100000Y-68580000D03*
%TD*%
D23*
%TO.C,J11*%
X83270000Y-81017500D03*
D16*
X83270000Y-76017500D03*
%TD*%
D13*
%TO.C,J9*%
X137190000Y-41885000D03*
D14*
X139730000Y-41885000D03*
X142270000Y-41885000D03*
X144810000Y-41885000D03*
X147350000Y-41885000D03*
%TD*%
D21*
%TO.C,U3*%
X105266719Y-68439511D03*
D22*
X106536719Y-63359511D03*
X107806719Y-68439511D03*
X109076719Y-63359511D03*
X110346719Y-68439511D03*
X111616719Y-63359511D03*
X112886719Y-68439511D03*
X114156719Y-63359511D03*
X115426719Y-68439511D03*
X116696719Y-63359511D03*
X117966719Y-68439511D03*
X119236719Y-63359511D03*
X120506719Y-68439511D03*
X121776719Y-63359511D03*
X123046719Y-68439511D03*
%TD*%
D20*
%TO.C,J3*%
X192784646Y-106520000D03*
D16*
X187784646Y-106520000D03*
%TD*%
D20*
%TO.C,J8*%
X91440000Y-106680000D03*
D16*
X86440000Y-106680000D03*
X81440000Y-106680000D03*
%TD*%
D11*
%TO.C,C12*%
X216184646Y-60800000D03*
D12*
X216184646Y-65800000D03*
%TD*%
D24*
%TO.C,C19*%
X123331365Y-91634511D03*
X123331365Y-93184511D03*
%TD*%
D25*
%TO.C,R22*%
X125426365Y-96219511D03*
X123776365Y-96219511D03*
%TD*%
D26*
%TO.C,C2*%
X169969646Y-100170000D03*
X168419646Y-100170000D03*
%TD*%
D27*
%TO.C,R25*%
X124601365Y-80154511D03*
X124601365Y-81804511D03*
%TD*%
D25*
%TO.C,R14*%
X209389646Y-96360000D03*
X207739646Y-96360000D03*
%TD*%
D26*
%TO.C,C8*%
X211879646Y-100170000D03*
X210329646Y-100170000D03*
%TD*%
D25*
%TO.C,R21*%
X130506365Y-96219511D03*
X128856365Y-96219511D03*
%TD*%
D28*
%TO.C,R24*%
X130951365Y-85614511D03*
X130951365Y-83964511D03*
%TD*%
D29*
%TO.C,C10*%
X210329646Y-72230000D03*
X211879646Y-72230000D03*
%TD*%
D25*
%TO.C,R6*%
X167479646Y-96360000D03*
X165829646Y-96360000D03*
%TD*%
D30*
%TO.C,D8*%
X209199646Y-86265000D03*
X210469646Y-86265000D03*
X211739646Y-86265000D03*
X213009646Y-86265000D03*
X213009646Y-91215000D03*
X211739646Y-91215000D03*
X210469646Y-91215000D03*
X209199646Y-91215000D03*
%TD*%
D27*
%TO.C,R18*%
X213644646Y-80295000D03*
X213644646Y-81945000D03*
%TD*%
D24*
%TO.C,C13*%
X207294646Y-91775000D03*
X207294646Y-93325000D03*
%TD*%
D27*
%TO.C,R11*%
X165384646Y-84105000D03*
X165384646Y-85755000D03*
%TD*%
D28*
%TO.C,R8*%
X173004646Y-85755000D03*
X173004646Y-84105000D03*
%TD*%
D27*
%TO.C,R10*%
X171734646Y-80295000D03*
X171734646Y-81945000D03*
%TD*%
D31*
%TO.C,R23*%
X130103865Y-75899511D03*
X124178865Y-75899511D03*
%TD*%
D26*
%TO.C,C14*%
X127916365Y-100029511D03*
X126366365Y-100029511D03*
%TD*%
D24*
%TO.C,C7*%
X165384646Y-91775000D03*
X165384646Y-93325000D03*
%TD*%
D31*
%TO.C,R15*%
X214067146Y-76040000D03*
X208142146Y-76040000D03*
%TD*%
D27*
%TO.C,R27*%
X123331365Y-83964511D03*
X123331365Y-85614511D03*
%TD*%
D30*
%TO.C,D3*%
X167289646Y-86265000D03*
X168559646Y-86265000D03*
X169829646Y-86265000D03*
X171099646Y-86265000D03*
X171099646Y-91215000D03*
X169829646Y-91215000D03*
X168559646Y-91215000D03*
X167289646Y-91215000D03*
%TD*%
D27*
%TO.C,R26*%
X129681365Y-80154511D03*
X129681365Y-81804511D03*
%TD*%
D25*
%TO.C,R5*%
X172559646Y-96360000D03*
X170909646Y-96360000D03*
%TD*%
D31*
%TO.C,R7*%
X172157146Y-76040000D03*
X166232146Y-76040000D03*
%TD*%
D25*
%TO.C,R13*%
X214469646Y-96360000D03*
X212819646Y-96360000D03*
%TD*%
D30*
%TO.C,D13*%
X125236365Y-86124511D03*
X126506365Y-86124511D03*
X127776365Y-86124511D03*
X129046365Y-86124511D03*
X129046365Y-91074511D03*
X127776365Y-91074511D03*
X126506365Y-91074511D03*
X125236365Y-91074511D03*
%TD*%
D29*
%TO.C,C16*%
X126366365Y-72089511D03*
X127916365Y-72089511D03*
%TD*%
D27*
%TO.C,R9*%
X166654646Y-80295000D03*
X166654646Y-81945000D03*
%TD*%
%TO.C,R17*%
X208564646Y-80295000D03*
X208564646Y-81945000D03*
%TD*%
D29*
%TO.C,C4*%
X168419646Y-72230000D03*
X169969646Y-72230000D03*
%TD*%
D27*
%TO.C,R19*%
X207294646Y-84105000D03*
X207294646Y-85755000D03*
%TD*%
D28*
%TO.C,R16*%
X214914646Y-85755000D03*
X214914646Y-84105000D03*
%TD*%
M02*
