M48
; DRILL file {KiCad 6.0.2+dfsg-1} date Вт 28 ноя 2023 02:05:03
; FORMAT={-:-/ absolute / inch / decimal}
; #@! TF.CreationDate,2023-11-28T02:05:03+03:00
; #@! TF.GenerationSoftware,Kicad,Pcbnew,6.0.2+dfsg-1
; #@! TF.FileFunction,Plated,1,2,PTH
FMAT,2
INCH
; #@! TA.AperFunction,Plated,PTH,ViaDrill
T1C0.0197
; #@! TA.AperFunction,Plated,PTH,ComponentDrill
T2C0.0394
; #@! TA.AperFunction,Plated,PTH,ComponentDrill
T3C0.0472
; #@! TA.AperFunction,Plated,PTH,ComponentDrill
T4C0.0669
; #@! TA.AperFunction,Plated,PTH,ComponentDrill
T5C0.0945
%
G90
G05
T1
X3.5Y-3.8
X3.75Y-2.4
X4.5Y-2.25
X4.5Y-2.9
X4.55Y-3.0
X4.6Y-2.25
X4.6Y-2.9
X4.7Y-2.15
X4.7Y-2.25
X4.7Y-3.85
X4.75Y-3.25
X4.8Y-3.45
X4.85Y-3.95
X4.9Y-3.85
X5.1Y-1.699
X5.1Y-2.5
X5.1222Y-2.8548
X5.4Y-2.05
X6.15Y-2.25
X6.15Y-2.9
X6.2Y-3.0
X6.25Y-2.25
X6.2501Y-2.9006
X6.35Y-2.15
X6.35Y-2.25
X6.35Y-3.85
X6.4Y-3.3
X6.45Y-3.45
X6.5Y-3.95
X6.55Y-3.85
X6.7088Y-1.7
X6.75Y-2.5
X6.7778Y-2.8603
X7.05Y-2.05
X7.8Y-2.25
X7.8Y-2.9
X7.85Y-3.0
X7.9Y-2.25
X7.9001Y-2.9006
X8.0Y-2.15
X8.0Y-2.25
X8.0Y-3.85
X8.0488Y-1.701
X8.05Y-3.3
X8.1Y-3.45
X8.15Y-3.95
X8.2Y-3.85
X8.4Y-2.5
X8.4278Y-2.8603
X8.8Y-2.1
T2
X3.2Y-3.5
X3.2Y-3.6
X3.2Y-3.7
X3.25Y-2.65
X3.25Y-2.75
X4.1444Y-2.6945
X4.1944Y-2.4945
X4.2444Y-2.6945
X4.2944Y-2.4945
X4.3444Y-2.6945
X4.3556Y-2.9882
X4.3944Y-2.4945
X4.4444Y-2.6945
X4.4556Y-2.9882
X4.4944Y-2.4945
X4.5444Y-2.6945
X4.5944Y-2.4945
X4.6444Y-2.6945
X4.6944Y-2.4945
X4.7444Y-2.6945
X4.7944Y-2.4945
X4.8444Y-2.6945
X5.2056Y-2.3882
X5.2056Y-2.585
X5.4012Y-1.649
X5.5012Y-1.649
X5.6012Y-1.649
X5.7012Y-1.649
X5.8Y-2.7
X5.8012Y-1.649
X5.85Y-2.5
X5.9Y-2.7
X5.95Y-2.5
X6.0Y-2.7
X6.0112Y-2.9937
X6.05Y-2.5
X6.1Y-2.7
X6.1112Y-2.9937
X6.15Y-2.5
X6.2Y-2.7
X6.25Y-2.5
X6.3Y-2.7
X6.35Y-2.5
X6.4Y-2.7
X6.45Y-2.5
X6.5Y-2.7
X6.8612Y-2.3937
X6.8612Y-2.5906
X7.05Y-1.65
X7.15Y-1.65
X7.25Y-1.65
X7.35Y-1.65
X7.45Y-1.65
X7.45Y-2.7
X7.5Y-2.5
X7.55Y-2.7
X7.6Y-2.5
X7.65Y-2.7
X7.6612Y-2.9937
X7.7Y-2.5
X7.75Y-2.7
X7.7612Y-2.9937
X7.8Y-2.5
X7.85Y-2.7
X7.9Y-2.5
X7.95Y-2.7
X8.0Y-2.5
X8.05Y-2.7
X8.1Y-2.5
X8.15Y-2.7
X8.45Y-1.65
X8.5112Y-2.3937
X8.5112Y-2.5906
X8.55Y-1.65
X8.65Y-1.65
X8.75Y-1.65
X8.85Y-1.65
T3
X8.85Y-2.55
X8.85Y-3.05
T4
X3.2063Y-4.2
X3.2783Y-2.9928
X3.2783Y-3.1897
X3.4031Y-4.2
X3.5031Y-1.7283
X3.6Y-4.2
X3.7Y-1.7283
X4.1087Y-4.1882
X4.3056Y-4.1882
X5.7588Y-4.1937
X5.9557Y-4.1937
X7.3931Y-4.1937
X7.5899Y-4.1937
X8.8Y-3.4
X8.8Y-3.5969
T5
X4.0Y-2.1819
X5.0Y-2.1819
X5.65Y-2.1819
X6.65Y-2.1819
X7.3Y-2.1819
X8.3Y-2.1819
T0
M30
