%TF.GenerationSoftware,KiCad,Pcbnew,6.0.2+dfsg-1*%
%TF.CreationDate,2023-11-28T02:04:46+03:00*%
%TF.ProjectId,servodriver,73657276-6f64-4726-9976-65722e6b6963,rev?*%
%TF.SameCoordinates,Original*%
%TF.FileFunction,Legend,Bot*%
%TF.FilePolarity,Positive*%
%FSLAX46Y46*%
G04 Gerber Fmt 4.6, Leading zero omitted, Abs format (unit mm)*
G04 Created by KiCad (PCBNEW 6.0.2+dfsg-1) date 2023-11-28 02:04:46*
%MOMM*%
%LPD*%
G01*
G04 APERTURE LIST*
%ADD10C,0.150000*%
%ADD11C,0.120000*%
G04 APERTURE END LIST*
D10*
%TO.C,C19*%
X122258507Y-91766653D02*
X122306126Y-91719034D01*
X122353745Y-91576177D01*
X122353745Y-91480939D01*
X122306126Y-91338082D01*
X122210888Y-91242844D01*
X122115650Y-91195225D01*
X121925174Y-91147606D01*
X121782317Y-91147606D01*
X121591841Y-91195225D01*
X121496603Y-91242844D01*
X121401365Y-91338082D01*
X121353745Y-91480939D01*
X121353745Y-91576177D01*
X121401365Y-91719034D01*
X121448984Y-91766653D01*
X122353745Y-92719034D02*
X122353745Y-92147606D01*
X122353745Y-92433320D02*
X121353745Y-92433320D01*
X121496603Y-92338082D01*
X121591841Y-92242844D01*
X121639460Y-92147606D01*
X122353745Y-93195225D02*
X122353745Y-93385701D01*
X122306126Y-93480939D01*
X122258507Y-93528558D01*
X122115650Y-93623796D01*
X121925174Y-93671415D01*
X121544222Y-93671415D01*
X121448984Y-93623796D01*
X121401365Y-93576177D01*
X121353745Y-93480939D01*
X121353745Y-93290463D01*
X121401365Y-93195225D01*
X121448984Y-93147606D01*
X121544222Y-93099987D01*
X121782317Y-93099987D01*
X121877555Y-93147606D01*
X121925174Y-93195225D01*
X121972793Y-93290463D01*
X121972793Y-93480939D01*
X121925174Y-93576177D01*
X121877555Y-93623796D01*
X121782317Y-93671415D01*
%TO.C,R22*%
X125244222Y-95241891D02*
X125577555Y-94765701D01*
X125815650Y-95241891D02*
X125815650Y-94241891D01*
X125434698Y-94241891D01*
X125339460Y-94289511D01*
X125291841Y-94337130D01*
X125244222Y-94432368D01*
X125244222Y-94575225D01*
X125291841Y-94670463D01*
X125339460Y-94718082D01*
X125434698Y-94765701D01*
X125815650Y-94765701D01*
X124863269Y-94337130D02*
X124815650Y-94289511D01*
X124720412Y-94241891D01*
X124482317Y-94241891D01*
X124387079Y-94289511D01*
X124339460Y-94337130D01*
X124291841Y-94432368D01*
X124291841Y-94527606D01*
X124339460Y-94670463D01*
X124910888Y-95241891D01*
X124291841Y-95241891D01*
X123910888Y-94337130D02*
X123863269Y-94289511D01*
X123768031Y-94241891D01*
X123529936Y-94241891D01*
X123434698Y-94289511D01*
X123387079Y-94337130D01*
X123339460Y-94432368D01*
X123339460Y-94527606D01*
X123387079Y-94670463D01*
X123958507Y-95241891D01*
X123339460Y-95241891D01*
%TO.C,C2*%
X169361312Y-99097142D02*
X169408931Y-99144761D01*
X169551788Y-99192380D01*
X169647026Y-99192380D01*
X169789884Y-99144761D01*
X169885122Y-99049523D01*
X169932741Y-98954285D01*
X169980360Y-98763809D01*
X169980360Y-98620952D01*
X169932741Y-98430476D01*
X169885122Y-98335238D01*
X169789884Y-98240000D01*
X169647026Y-98192380D01*
X169551788Y-98192380D01*
X169408931Y-98240000D01*
X169361312Y-98287619D01*
X168980360Y-98287619D02*
X168932741Y-98240000D01*
X168837503Y-98192380D01*
X168599407Y-98192380D01*
X168504169Y-98240000D01*
X168456550Y-98287619D01*
X168408931Y-98382857D01*
X168408931Y-98478095D01*
X168456550Y-98620952D01*
X169027979Y-99192380D01*
X168408931Y-99192380D01*
%TO.C,R25*%
X123623745Y-80336653D02*
X123147555Y-80003320D01*
X123623745Y-79765225D02*
X122623745Y-79765225D01*
X122623745Y-80146177D01*
X122671365Y-80241415D01*
X122718984Y-80289034D01*
X122814222Y-80336653D01*
X122957079Y-80336653D01*
X123052317Y-80289034D01*
X123099936Y-80241415D01*
X123147555Y-80146177D01*
X123147555Y-79765225D01*
X122718984Y-80717606D02*
X122671365Y-80765225D01*
X122623745Y-80860463D01*
X122623745Y-81098558D01*
X122671365Y-81193796D01*
X122718984Y-81241415D01*
X122814222Y-81289034D01*
X122909460Y-81289034D01*
X123052317Y-81241415D01*
X123623745Y-80669987D01*
X123623745Y-81289034D01*
X122623745Y-82193796D02*
X122623745Y-81717606D01*
X123099936Y-81669987D01*
X123052317Y-81717606D01*
X123004698Y-81812844D01*
X123004698Y-82050939D01*
X123052317Y-82146177D01*
X123099936Y-82193796D01*
X123195174Y-82241415D01*
X123433269Y-82241415D01*
X123528507Y-82193796D01*
X123576126Y-82146177D01*
X123623745Y-82050939D01*
X123623745Y-81812844D01*
X123576126Y-81717606D01*
X123528507Y-81669987D01*
%TO.C,R14*%
X209207503Y-95382380D02*
X209540836Y-94906190D01*
X209778931Y-95382380D02*
X209778931Y-94382380D01*
X209397979Y-94382380D01*
X209302741Y-94430000D01*
X209255122Y-94477619D01*
X209207503Y-94572857D01*
X209207503Y-94715714D01*
X209255122Y-94810952D01*
X209302741Y-94858571D01*
X209397979Y-94906190D01*
X209778931Y-94906190D01*
X208255122Y-95382380D02*
X208826550Y-95382380D01*
X208540836Y-95382380D02*
X208540836Y-94382380D01*
X208636074Y-94525238D01*
X208731312Y-94620476D01*
X208826550Y-94668095D01*
X207397979Y-94715714D02*
X207397979Y-95382380D01*
X207636074Y-94334761D02*
X207874169Y-95049047D01*
X207255122Y-95049047D01*
%TO.C,C8*%
X211271312Y-99097142D02*
X211318931Y-99144761D01*
X211461788Y-99192380D01*
X211557026Y-99192380D01*
X211699884Y-99144761D01*
X211795122Y-99049523D01*
X211842741Y-98954285D01*
X211890360Y-98763809D01*
X211890360Y-98620952D01*
X211842741Y-98430476D01*
X211795122Y-98335238D01*
X211699884Y-98240000D01*
X211557026Y-98192380D01*
X211461788Y-98192380D01*
X211318931Y-98240000D01*
X211271312Y-98287619D01*
X210699884Y-98620952D02*
X210795122Y-98573333D01*
X210842741Y-98525714D01*
X210890360Y-98430476D01*
X210890360Y-98382857D01*
X210842741Y-98287619D01*
X210795122Y-98240000D01*
X210699884Y-98192380D01*
X210509407Y-98192380D01*
X210414169Y-98240000D01*
X210366550Y-98287619D01*
X210318931Y-98382857D01*
X210318931Y-98430476D01*
X210366550Y-98525714D01*
X210414169Y-98573333D01*
X210509407Y-98620952D01*
X210699884Y-98620952D01*
X210795122Y-98668571D01*
X210842741Y-98716190D01*
X210890360Y-98811428D01*
X210890360Y-99001904D01*
X210842741Y-99097142D01*
X210795122Y-99144761D01*
X210699884Y-99192380D01*
X210509407Y-99192380D01*
X210414169Y-99144761D01*
X210366550Y-99097142D01*
X210318931Y-99001904D01*
X210318931Y-98811428D01*
X210366550Y-98716190D01*
X210414169Y-98668571D01*
X210509407Y-98620952D01*
%TO.C,R21*%
X130324222Y-95401891D02*
X130657555Y-94925701D01*
X130895650Y-95401891D02*
X130895650Y-94401891D01*
X130514698Y-94401891D01*
X130419460Y-94449511D01*
X130371841Y-94497130D01*
X130324222Y-94592368D01*
X130324222Y-94735225D01*
X130371841Y-94830463D01*
X130419460Y-94878082D01*
X130514698Y-94925701D01*
X130895650Y-94925701D01*
X129943269Y-94497130D02*
X129895650Y-94449511D01*
X129800412Y-94401891D01*
X129562317Y-94401891D01*
X129467079Y-94449511D01*
X129419460Y-94497130D01*
X129371841Y-94592368D01*
X129371841Y-94687606D01*
X129419460Y-94830463D01*
X129990888Y-95401891D01*
X129371841Y-95401891D01*
X128419460Y-95401891D02*
X128990888Y-95401891D01*
X128705174Y-95401891D02*
X128705174Y-94401891D01*
X128800412Y-94544749D01*
X128895650Y-94639987D01*
X128990888Y-94687606D01*
%TO.C,R24*%
X132833745Y-84146653D02*
X132357555Y-83813320D01*
X132833745Y-83575225D02*
X131833745Y-83575225D01*
X131833745Y-83956177D01*
X131881365Y-84051415D01*
X131928984Y-84099034D01*
X132024222Y-84146653D01*
X132167079Y-84146653D01*
X132262317Y-84099034D01*
X132309936Y-84051415D01*
X132357555Y-83956177D01*
X132357555Y-83575225D01*
X131928984Y-84527606D02*
X131881365Y-84575225D01*
X131833745Y-84670463D01*
X131833745Y-84908558D01*
X131881365Y-85003796D01*
X131928984Y-85051415D01*
X132024222Y-85099034D01*
X132119460Y-85099034D01*
X132262317Y-85051415D01*
X132833745Y-84479987D01*
X132833745Y-85099034D01*
X132167079Y-85956177D02*
X132833745Y-85956177D01*
X131786126Y-85718082D02*
X132500412Y-85479987D01*
X132500412Y-86099034D01*
%TO.C,C10*%
X211888083Y-71317142D02*
X211935702Y-71364761D01*
X212078559Y-71412380D01*
X212173797Y-71412380D01*
X212316654Y-71364761D01*
X212411892Y-71269523D01*
X212459511Y-71174285D01*
X212507130Y-70983809D01*
X212507130Y-70840952D01*
X212459511Y-70650476D01*
X212411892Y-70555238D01*
X212316654Y-70460000D01*
X212173797Y-70412380D01*
X212078559Y-70412380D01*
X211935702Y-70460000D01*
X211888083Y-70507619D01*
X210935702Y-71412380D02*
X211507130Y-71412380D01*
X211221416Y-71412380D02*
X211221416Y-70412380D01*
X211316654Y-70555238D01*
X211411892Y-70650476D01*
X211507130Y-70698095D01*
X210316654Y-70412380D02*
X210221416Y-70412380D01*
X210126178Y-70460000D01*
X210078559Y-70507619D01*
X210030940Y-70602857D01*
X209983321Y-70793333D01*
X209983321Y-71031428D01*
X210030940Y-71221904D01*
X210078559Y-71317142D01*
X210126178Y-71364761D01*
X210221416Y-71412380D01*
X210316654Y-71412380D01*
X210411892Y-71364761D01*
X210459511Y-71317142D01*
X210507130Y-71221904D01*
X210554749Y-71031428D01*
X210554749Y-70793333D01*
X210507130Y-70602857D01*
X210459511Y-70507619D01*
X210411892Y-70460000D01*
X210316654Y-70412380D01*
%TO.C,R6*%
X166821312Y-95382380D02*
X167154646Y-94906190D01*
X167392741Y-95382380D02*
X167392741Y-94382380D01*
X167011788Y-94382380D01*
X166916550Y-94430000D01*
X166868931Y-94477619D01*
X166821312Y-94572857D01*
X166821312Y-94715714D01*
X166868931Y-94810952D01*
X166916550Y-94858571D01*
X167011788Y-94906190D01*
X167392741Y-94906190D01*
X165964169Y-94382380D02*
X166154646Y-94382380D01*
X166249884Y-94430000D01*
X166297503Y-94477619D01*
X166392741Y-94620476D01*
X166440360Y-94810952D01*
X166440360Y-95191904D01*
X166392741Y-95287142D01*
X166345122Y-95334761D01*
X166249884Y-95382380D01*
X166059407Y-95382380D01*
X165964169Y-95334761D01*
X165916550Y-95287142D01*
X165868931Y-95191904D01*
X165868931Y-94953809D01*
X165916550Y-94858571D01*
X165964169Y-94810952D01*
X166059407Y-94763333D01*
X166249884Y-94763333D01*
X166345122Y-94810952D01*
X166392741Y-94858571D01*
X166440360Y-94953809D01*
%TO.C,D8*%
X208157026Y-88001904D02*
X207157026Y-88001904D01*
X207157026Y-88240000D01*
X207204646Y-88382857D01*
X207299884Y-88478095D01*
X207395122Y-88525714D01*
X207585598Y-88573333D01*
X207728455Y-88573333D01*
X207918931Y-88525714D01*
X208014169Y-88478095D01*
X208109407Y-88382857D01*
X208157026Y-88240000D01*
X208157026Y-88001904D01*
X207585598Y-89144761D02*
X207537979Y-89049523D01*
X207490360Y-89001904D01*
X207395122Y-88954285D01*
X207347503Y-88954285D01*
X207252265Y-89001904D01*
X207204646Y-89049523D01*
X207157026Y-89144761D01*
X207157026Y-89335238D01*
X207204646Y-89430476D01*
X207252265Y-89478095D01*
X207347503Y-89525714D01*
X207395122Y-89525714D01*
X207490360Y-89478095D01*
X207537979Y-89430476D01*
X207585598Y-89335238D01*
X207585598Y-89144761D01*
X207633217Y-89049523D01*
X207680836Y-89001904D01*
X207776074Y-88954285D01*
X207966550Y-88954285D01*
X208061788Y-89001904D01*
X208109407Y-89049523D01*
X208157026Y-89144761D01*
X208157026Y-89335238D01*
X208109407Y-89430476D01*
X208061788Y-89478095D01*
X207966550Y-89525714D01*
X207776074Y-89525714D01*
X207680836Y-89478095D01*
X207633217Y-89430476D01*
X207585598Y-89335238D01*
%TO.C,R18*%
X212667026Y-80477142D02*
X212190836Y-80143809D01*
X212667026Y-79905714D02*
X211667026Y-79905714D01*
X211667026Y-80286666D01*
X211714646Y-80381904D01*
X211762265Y-80429523D01*
X211857503Y-80477142D01*
X212000360Y-80477142D01*
X212095598Y-80429523D01*
X212143217Y-80381904D01*
X212190836Y-80286666D01*
X212190836Y-79905714D01*
X212667026Y-81429523D02*
X212667026Y-80858095D01*
X212667026Y-81143809D02*
X211667026Y-81143809D01*
X211809884Y-81048571D01*
X211905122Y-80953333D01*
X211952741Y-80858095D01*
X212095598Y-82000952D02*
X212047979Y-81905714D01*
X212000360Y-81858095D01*
X211905122Y-81810476D01*
X211857503Y-81810476D01*
X211762265Y-81858095D01*
X211714646Y-81905714D01*
X211667026Y-82000952D01*
X211667026Y-82191428D01*
X211714646Y-82286666D01*
X211762265Y-82334285D01*
X211857503Y-82381904D01*
X211905122Y-82381904D01*
X212000360Y-82334285D01*
X212047979Y-82286666D01*
X212095598Y-82191428D01*
X212095598Y-82000952D01*
X212143217Y-81905714D01*
X212190836Y-81858095D01*
X212286074Y-81810476D01*
X212476550Y-81810476D01*
X212571788Y-81858095D01*
X212619407Y-81905714D01*
X212667026Y-82000952D01*
X212667026Y-82191428D01*
X212619407Y-82286666D01*
X212571788Y-82334285D01*
X212476550Y-82381904D01*
X212286074Y-82381904D01*
X212190836Y-82334285D01*
X212143217Y-82286666D01*
X212095598Y-82191428D01*
%TO.C,C13*%
X206221788Y-91907142D02*
X206269407Y-91859523D01*
X206317026Y-91716666D01*
X206317026Y-91621428D01*
X206269407Y-91478571D01*
X206174169Y-91383333D01*
X206078931Y-91335714D01*
X205888455Y-91288095D01*
X205745598Y-91288095D01*
X205555122Y-91335714D01*
X205459884Y-91383333D01*
X205364646Y-91478571D01*
X205317026Y-91621428D01*
X205317026Y-91716666D01*
X205364646Y-91859523D01*
X205412265Y-91907142D01*
X206317026Y-92859523D02*
X206317026Y-92288095D01*
X206317026Y-92573809D02*
X205317026Y-92573809D01*
X205459884Y-92478571D01*
X205555122Y-92383333D01*
X205602741Y-92288095D01*
X205317026Y-93192857D02*
X205317026Y-93811904D01*
X205697979Y-93478571D01*
X205697979Y-93621428D01*
X205745598Y-93716666D01*
X205793217Y-93764285D01*
X205888455Y-93811904D01*
X206126550Y-93811904D01*
X206221788Y-93764285D01*
X206269407Y-93716666D01*
X206317026Y-93621428D01*
X206317026Y-93335714D01*
X206269407Y-93240476D01*
X206221788Y-93192857D01*
%TO.C,R11*%
X164407026Y-84287142D02*
X163930836Y-83953809D01*
X164407026Y-83715714D02*
X163407026Y-83715714D01*
X163407026Y-84096666D01*
X163454646Y-84191904D01*
X163502265Y-84239523D01*
X163597503Y-84287142D01*
X163740360Y-84287142D01*
X163835598Y-84239523D01*
X163883217Y-84191904D01*
X163930836Y-84096666D01*
X163930836Y-83715714D01*
X164407026Y-85239523D02*
X164407026Y-84668095D01*
X164407026Y-84953809D02*
X163407026Y-84953809D01*
X163549884Y-84858571D01*
X163645122Y-84763333D01*
X163692741Y-84668095D01*
X164407026Y-86191904D02*
X164407026Y-85620476D01*
X164407026Y-85906190D02*
X163407026Y-85906190D01*
X163549884Y-85810952D01*
X163645122Y-85715714D01*
X163692741Y-85620476D01*
%TO.C,R8*%
X174887026Y-84763333D02*
X174410836Y-84430000D01*
X174887026Y-84191904D02*
X173887026Y-84191904D01*
X173887026Y-84572857D01*
X173934646Y-84668095D01*
X173982265Y-84715714D01*
X174077503Y-84763333D01*
X174220360Y-84763333D01*
X174315598Y-84715714D01*
X174363217Y-84668095D01*
X174410836Y-84572857D01*
X174410836Y-84191904D01*
X174315598Y-85334761D02*
X174267979Y-85239523D01*
X174220360Y-85191904D01*
X174125122Y-85144285D01*
X174077503Y-85144285D01*
X173982265Y-85191904D01*
X173934646Y-85239523D01*
X173887026Y-85334761D01*
X173887026Y-85525238D01*
X173934646Y-85620476D01*
X173982265Y-85668095D01*
X174077503Y-85715714D01*
X174125122Y-85715714D01*
X174220360Y-85668095D01*
X174267979Y-85620476D01*
X174315598Y-85525238D01*
X174315598Y-85334761D01*
X174363217Y-85239523D01*
X174410836Y-85191904D01*
X174506074Y-85144285D01*
X174696550Y-85144285D01*
X174791788Y-85191904D01*
X174839407Y-85239523D01*
X174887026Y-85334761D01*
X174887026Y-85525238D01*
X174839407Y-85620476D01*
X174791788Y-85668095D01*
X174696550Y-85715714D01*
X174506074Y-85715714D01*
X174410836Y-85668095D01*
X174363217Y-85620476D01*
X174315598Y-85525238D01*
%TO.C,R10*%
X170757026Y-80477142D02*
X170280836Y-80143809D01*
X170757026Y-79905714D02*
X169757026Y-79905714D01*
X169757026Y-80286666D01*
X169804646Y-80381904D01*
X169852265Y-80429523D01*
X169947503Y-80477142D01*
X170090360Y-80477142D01*
X170185598Y-80429523D01*
X170233217Y-80381904D01*
X170280836Y-80286666D01*
X170280836Y-79905714D01*
X170757026Y-81429523D02*
X170757026Y-80858095D01*
X170757026Y-81143809D02*
X169757026Y-81143809D01*
X169899884Y-81048571D01*
X169995122Y-80953333D01*
X170042741Y-80858095D01*
X169757026Y-82048571D02*
X169757026Y-82143809D01*
X169804646Y-82239047D01*
X169852265Y-82286666D01*
X169947503Y-82334285D01*
X170137979Y-82381904D01*
X170376074Y-82381904D01*
X170566550Y-82334285D01*
X170661788Y-82286666D01*
X170709407Y-82239047D01*
X170757026Y-82143809D01*
X170757026Y-82048571D01*
X170709407Y-81953333D01*
X170661788Y-81905714D01*
X170566550Y-81858095D01*
X170376074Y-81810476D01*
X170137979Y-81810476D01*
X169947503Y-81858095D01*
X169852265Y-81905714D01*
X169804646Y-81953333D01*
X169757026Y-82048571D01*
%TO.C,R23*%
X127784222Y-78891891D02*
X128117555Y-78415701D01*
X128355650Y-78891891D02*
X128355650Y-77891891D01*
X127974698Y-77891891D01*
X127879460Y-77939511D01*
X127831841Y-77987130D01*
X127784222Y-78082368D01*
X127784222Y-78225225D01*
X127831841Y-78320463D01*
X127879460Y-78368082D01*
X127974698Y-78415701D01*
X128355650Y-78415701D01*
X127403269Y-77987130D02*
X127355650Y-77939511D01*
X127260412Y-77891891D01*
X127022317Y-77891891D01*
X126927079Y-77939511D01*
X126879460Y-77987130D01*
X126831841Y-78082368D01*
X126831841Y-78177606D01*
X126879460Y-78320463D01*
X127450888Y-78891891D01*
X126831841Y-78891891D01*
X126498507Y-77891891D02*
X125879460Y-77891891D01*
X126212793Y-78272844D01*
X126069936Y-78272844D01*
X125974698Y-78320463D01*
X125927079Y-78368082D01*
X125879460Y-78463320D01*
X125879460Y-78701415D01*
X125927079Y-78796653D01*
X125974698Y-78844272D01*
X126069936Y-78891891D01*
X126355650Y-78891891D01*
X126450888Y-78844272D01*
X126498507Y-78796653D01*
%TO.C,C14*%
X127784222Y-98956653D02*
X127831841Y-99004272D01*
X127974698Y-99051891D01*
X128069936Y-99051891D01*
X128212793Y-99004272D01*
X128308031Y-98909034D01*
X128355650Y-98813796D01*
X128403269Y-98623320D01*
X128403269Y-98480463D01*
X128355650Y-98289987D01*
X128308031Y-98194749D01*
X128212793Y-98099511D01*
X128069936Y-98051891D01*
X127974698Y-98051891D01*
X127831841Y-98099511D01*
X127784222Y-98147130D01*
X126831841Y-99051891D02*
X127403269Y-99051891D01*
X127117555Y-99051891D02*
X127117555Y-98051891D01*
X127212793Y-98194749D01*
X127308031Y-98289987D01*
X127403269Y-98337606D01*
X125974698Y-98385225D02*
X125974698Y-99051891D01*
X126212793Y-98004272D02*
X126450888Y-98718558D01*
X125831841Y-98718558D01*
%TO.C,C7*%
X164311788Y-92383333D02*
X164359407Y-92335714D01*
X164407026Y-92192857D01*
X164407026Y-92097619D01*
X164359407Y-91954761D01*
X164264169Y-91859523D01*
X164168931Y-91811904D01*
X163978455Y-91764285D01*
X163835598Y-91764285D01*
X163645122Y-91811904D01*
X163549884Y-91859523D01*
X163454646Y-91954761D01*
X163407026Y-92097619D01*
X163407026Y-92192857D01*
X163454646Y-92335714D01*
X163502265Y-92383333D01*
X163407026Y-92716666D02*
X163407026Y-93383333D01*
X164407026Y-92954761D01*
%TO.C,R15*%
X211747503Y-79032380D02*
X212080836Y-78556190D01*
X212318931Y-79032380D02*
X212318931Y-78032380D01*
X211937979Y-78032380D01*
X211842741Y-78080000D01*
X211795122Y-78127619D01*
X211747503Y-78222857D01*
X211747503Y-78365714D01*
X211795122Y-78460952D01*
X211842741Y-78508571D01*
X211937979Y-78556190D01*
X212318931Y-78556190D01*
X210795122Y-79032380D02*
X211366550Y-79032380D01*
X211080836Y-79032380D02*
X211080836Y-78032380D01*
X211176074Y-78175238D01*
X211271312Y-78270476D01*
X211366550Y-78318095D01*
X209890360Y-78032380D02*
X210366550Y-78032380D01*
X210414169Y-78508571D01*
X210366550Y-78460952D01*
X210271312Y-78413333D01*
X210033217Y-78413333D01*
X209937979Y-78460952D01*
X209890360Y-78508571D01*
X209842741Y-78603809D01*
X209842741Y-78841904D01*
X209890360Y-78937142D01*
X209937979Y-78984761D01*
X210033217Y-79032380D01*
X210271312Y-79032380D01*
X210366550Y-78984761D01*
X210414169Y-78937142D01*
%TO.C,R27*%
X122353745Y-84146653D02*
X121877555Y-83813320D01*
X122353745Y-83575225D02*
X121353745Y-83575225D01*
X121353745Y-83956177D01*
X121401365Y-84051415D01*
X121448984Y-84099034D01*
X121544222Y-84146653D01*
X121687079Y-84146653D01*
X121782317Y-84099034D01*
X121829936Y-84051415D01*
X121877555Y-83956177D01*
X121877555Y-83575225D01*
X121448984Y-84527606D02*
X121401365Y-84575225D01*
X121353745Y-84670463D01*
X121353745Y-84908558D01*
X121401365Y-85003796D01*
X121448984Y-85051415D01*
X121544222Y-85099034D01*
X121639460Y-85099034D01*
X121782317Y-85051415D01*
X122353745Y-84479987D01*
X122353745Y-85099034D01*
X121353745Y-85432368D02*
X121353745Y-86099034D01*
X122353745Y-85670463D01*
%TO.C,D3*%
X166247026Y-88001904D02*
X165247026Y-88001904D01*
X165247026Y-88240000D01*
X165294646Y-88382857D01*
X165389884Y-88478095D01*
X165485122Y-88525714D01*
X165675598Y-88573333D01*
X165818455Y-88573333D01*
X166008931Y-88525714D01*
X166104169Y-88478095D01*
X166199407Y-88382857D01*
X166247026Y-88240000D01*
X166247026Y-88001904D01*
X165247026Y-88906666D02*
X165247026Y-89525714D01*
X165627979Y-89192380D01*
X165627979Y-89335238D01*
X165675598Y-89430476D01*
X165723217Y-89478095D01*
X165818455Y-89525714D01*
X166056550Y-89525714D01*
X166151788Y-89478095D01*
X166199407Y-89430476D01*
X166247026Y-89335238D01*
X166247026Y-89049523D01*
X166199407Y-88954285D01*
X166151788Y-88906666D01*
%TO.C,R26*%
X128703745Y-80336653D02*
X128227555Y-80003320D01*
X128703745Y-79765225D02*
X127703745Y-79765225D01*
X127703745Y-80146177D01*
X127751365Y-80241415D01*
X127798984Y-80289034D01*
X127894222Y-80336653D01*
X128037079Y-80336653D01*
X128132317Y-80289034D01*
X128179936Y-80241415D01*
X128227555Y-80146177D01*
X128227555Y-79765225D01*
X127798984Y-80717606D02*
X127751365Y-80765225D01*
X127703745Y-80860463D01*
X127703745Y-81098558D01*
X127751365Y-81193796D01*
X127798984Y-81241415D01*
X127894222Y-81289034D01*
X127989460Y-81289034D01*
X128132317Y-81241415D01*
X128703745Y-80669987D01*
X128703745Y-81289034D01*
X127703745Y-82146177D02*
X127703745Y-81955701D01*
X127751365Y-81860463D01*
X127798984Y-81812844D01*
X127941841Y-81717606D01*
X128132317Y-81669987D01*
X128513269Y-81669987D01*
X128608507Y-81717606D01*
X128656126Y-81765225D01*
X128703745Y-81860463D01*
X128703745Y-82050939D01*
X128656126Y-82146177D01*
X128608507Y-82193796D01*
X128513269Y-82241415D01*
X128275174Y-82241415D01*
X128179936Y-82193796D01*
X128132317Y-82146177D01*
X128084698Y-82050939D01*
X128084698Y-81860463D01*
X128132317Y-81765225D01*
X128179936Y-81717606D01*
X128275174Y-81669987D01*
%TO.C,R5*%
X171901312Y-95542380D02*
X172234646Y-95066190D01*
X172472741Y-95542380D02*
X172472741Y-94542380D01*
X172091788Y-94542380D01*
X171996550Y-94590000D01*
X171948931Y-94637619D01*
X171901312Y-94732857D01*
X171901312Y-94875714D01*
X171948931Y-94970952D01*
X171996550Y-95018571D01*
X172091788Y-95066190D01*
X172472741Y-95066190D01*
X170996550Y-94542380D02*
X171472741Y-94542380D01*
X171520360Y-95018571D01*
X171472741Y-94970952D01*
X171377503Y-94923333D01*
X171139407Y-94923333D01*
X171044169Y-94970952D01*
X170996550Y-95018571D01*
X170948931Y-95113809D01*
X170948931Y-95351904D01*
X170996550Y-95447142D01*
X171044169Y-95494761D01*
X171139407Y-95542380D01*
X171377503Y-95542380D01*
X171472741Y-95494761D01*
X171520360Y-95447142D01*
%TO.C,R7*%
X169361312Y-79032380D02*
X169694646Y-78556190D01*
X169932741Y-79032380D02*
X169932741Y-78032380D01*
X169551788Y-78032380D01*
X169456550Y-78080000D01*
X169408931Y-78127619D01*
X169361312Y-78222857D01*
X169361312Y-78365714D01*
X169408931Y-78460952D01*
X169456550Y-78508571D01*
X169551788Y-78556190D01*
X169932741Y-78556190D01*
X169027979Y-78032380D02*
X168361312Y-78032380D01*
X168789884Y-79032380D01*
%TO.C,R13*%
X214287503Y-95542380D02*
X214620836Y-95066190D01*
X214858931Y-95542380D02*
X214858931Y-94542380D01*
X214477979Y-94542380D01*
X214382741Y-94590000D01*
X214335122Y-94637619D01*
X214287503Y-94732857D01*
X214287503Y-94875714D01*
X214335122Y-94970952D01*
X214382741Y-95018571D01*
X214477979Y-95066190D01*
X214858931Y-95066190D01*
X213335122Y-95542380D02*
X213906550Y-95542380D01*
X213620836Y-95542380D02*
X213620836Y-94542380D01*
X213716074Y-94685238D01*
X213811312Y-94780476D01*
X213906550Y-94828095D01*
X213001788Y-94542380D02*
X212382741Y-94542380D01*
X212716074Y-94923333D01*
X212573217Y-94923333D01*
X212477979Y-94970952D01*
X212430360Y-95018571D01*
X212382741Y-95113809D01*
X212382741Y-95351904D01*
X212430360Y-95447142D01*
X212477979Y-95494761D01*
X212573217Y-95542380D01*
X212858931Y-95542380D01*
X212954169Y-95494761D01*
X213001788Y-95447142D01*
%TO.C,D13*%
X124193745Y-87385225D02*
X123193745Y-87385225D01*
X123193745Y-87623320D01*
X123241365Y-87766177D01*
X123336603Y-87861415D01*
X123431841Y-87909034D01*
X123622317Y-87956653D01*
X123765174Y-87956653D01*
X123955650Y-87909034D01*
X124050888Y-87861415D01*
X124146126Y-87766177D01*
X124193745Y-87623320D01*
X124193745Y-87385225D01*
X124193745Y-88909034D02*
X124193745Y-88337606D01*
X124193745Y-88623320D02*
X123193745Y-88623320D01*
X123336603Y-88528082D01*
X123431841Y-88432844D01*
X123479460Y-88337606D01*
X123193745Y-89242368D02*
X123193745Y-89861415D01*
X123574698Y-89528082D01*
X123574698Y-89670939D01*
X123622317Y-89766177D01*
X123669936Y-89813796D01*
X123765174Y-89861415D01*
X124003269Y-89861415D01*
X124098507Y-89813796D01*
X124146126Y-89766177D01*
X124193745Y-89670939D01*
X124193745Y-89385225D01*
X124146126Y-89289987D01*
X124098507Y-89242368D01*
%TO.C,C16*%
X127924802Y-71176653D02*
X127972421Y-71224272D01*
X128115278Y-71271891D01*
X128210516Y-71271891D01*
X128353373Y-71224272D01*
X128448611Y-71129034D01*
X128496230Y-71033796D01*
X128543849Y-70843320D01*
X128543849Y-70700463D01*
X128496230Y-70509987D01*
X128448611Y-70414749D01*
X128353373Y-70319511D01*
X128210516Y-70271891D01*
X128115278Y-70271891D01*
X127972421Y-70319511D01*
X127924802Y-70367130D01*
X126972421Y-71271891D02*
X127543849Y-71271891D01*
X127258135Y-71271891D02*
X127258135Y-70271891D01*
X127353373Y-70414749D01*
X127448611Y-70509987D01*
X127543849Y-70557606D01*
X126115278Y-70271891D02*
X126305754Y-70271891D01*
X126400992Y-70319511D01*
X126448611Y-70367130D01*
X126543849Y-70509987D01*
X126591468Y-70700463D01*
X126591468Y-71081415D01*
X126543849Y-71176653D01*
X126496230Y-71224272D01*
X126400992Y-71271891D01*
X126210516Y-71271891D01*
X126115278Y-71224272D01*
X126067659Y-71176653D01*
X126020040Y-71081415D01*
X126020040Y-70843320D01*
X126067659Y-70748082D01*
X126115278Y-70700463D01*
X126210516Y-70652844D01*
X126400992Y-70652844D01*
X126496230Y-70700463D01*
X126543849Y-70748082D01*
X126591468Y-70843320D01*
%TO.C,R9*%
X165677026Y-80953333D02*
X165200836Y-80620000D01*
X165677026Y-80381904D02*
X164677026Y-80381904D01*
X164677026Y-80762857D01*
X164724646Y-80858095D01*
X164772265Y-80905714D01*
X164867503Y-80953333D01*
X165010360Y-80953333D01*
X165105598Y-80905714D01*
X165153217Y-80858095D01*
X165200836Y-80762857D01*
X165200836Y-80381904D01*
X165677026Y-81429523D02*
X165677026Y-81620000D01*
X165629407Y-81715238D01*
X165581788Y-81762857D01*
X165438931Y-81858095D01*
X165248455Y-81905714D01*
X164867503Y-81905714D01*
X164772265Y-81858095D01*
X164724646Y-81810476D01*
X164677026Y-81715238D01*
X164677026Y-81524761D01*
X164724646Y-81429523D01*
X164772265Y-81381904D01*
X164867503Y-81334285D01*
X165105598Y-81334285D01*
X165200836Y-81381904D01*
X165248455Y-81429523D01*
X165296074Y-81524761D01*
X165296074Y-81715238D01*
X165248455Y-81810476D01*
X165200836Y-81858095D01*
X165105598Y-81905714D01*
%TO.C,R17*%
X207587026Y-80477142D02*
X207110836Y-80143809D01*
X207587026Y-79905714D02*
X206587026Y-79905714D01*
X206587026Y-80286666D01*
X206634646Y-80381904D01*
X206682265Y-80429523D01*
X206777503Y-80477142D01*
X206920360Y-80477142D01*
X207015598Y-80429523D01*
X207063217Y-80381904D01*
X207110836Y-80286666D01*
X207110836Y-79905714D01*
X207587026Y-81429523D02*
X207587026Y-80858095D01*
X207587026Y-81143809D02*
X206587026Y-81143809D01*
X206729884Y-81048571D01*
X206825122Y-80953333D01*
X206872741Y-80858095D01*
X206587026Y-81762857D02*
X206587026Y-82429523D01*
X207587026Y-82000952D01*
%TO.C,C4*%
X169501892Y-71317142D02*
X169549511Y-71364761D01*
X169692368Y-71412380D01*
X169787606Y-71412380D01*
X169930464Y-71364761D01*
X170025702Y-71269523D01*
X170073321Y-71174285D01*
X170120940Y-70983809D01*
X170120940Y-70840952D01*
X170073321Y-70650476D01*
X170025702Y-70555238D01*
X169930464Y-70460000D01*
X169787606Y-70412380D01*
X169692368Y-70412380D01*
X169549511Y-70460000D01*
X169501892Y-70507619D01*
X168644749Y-70745714D02*
X168644749Y-71412380D01*
X168882845Y-70364761D02*
X169120940Y-71079047D01*
X168501892Y-71079047D01*
%TO.C,R19*%
X206317026Y-84287142D02*
X205840836Y-83953809D01*
X206317026Y-83715714D02*
X205317026Y-83715714D01*
X205317026Y-84096666D01*
X205364646Y-84191904D01*
X205412265Y-84239523D01*
X205507503Y-84287142D01*
X205650360Y-84287142D01*
X205745598Y-84239523D01*
X205793217Y-84191904D01*
X205840836Y-84096666D01*
X205840836Y-83715714D01*
X206317026Y-85239523D02*
X206317026Y-84668095D01*
X206317026Y-84953809D02*
X205317026Y-84953809D01*
X205459884Y-84858571D01*
X205555122Y-84763333D01*
X205602741Y-84668095D01*
X206317026Y-85715714D02*
X206317026Y-85906190D01*
X206269407Y-86001428D01*
X206221788Y-86049047D01*
X206078931Y-86144285D01*
X205888455Y-86191904D01*
X205507503Y-86191904D01*
X205412265Y-86144285D01*
X205364646Y-86096666D01*
X205317026Y-86001428D01*
X205317026Y-85810952D01*
X205364646Y-85715714D01*
X205412265Y-85668095D01*
X205507503Y-85620476D01*
X205745598Y-85620476D01*
X205840836Y-85668095D01*
X205888455Y-85715714D01*
X205936074Y-85810952D01*
X205936074Y-86001428D01*
X205888455Y-86096666D01*
X205840836Y-86144285D01*
X205745598Y-86191904D01*
%TO.C,R16*%
X216797026Y-84287142D02*
X216320836Y-83953809D01*
X216797026Y-83715714D02*
X215797026Y-83715714D01*
X215797026Y-84096666D01*
X215844646Y-84191904D01*
X215892265Y-84239523D01*
X215987503Y-84287142D01*
X216130360Y-84287142D01*
X216225598Y-84239523D01*
X216273217Y-84191904D01*
X216320836Y-84096666D01*
X216320836Y-83715714D01*
X216797026Y-85239523D02*
X216797026Y-84668095D01*
X216797026Y-84953809D02*
X215797026Y-84953809D01*
X215939884Y-84858571D01*
X216035122Y-84763333D01*
X216082741Y-84668095D01*
X215797026Y-86096666D02*
X215797026Y-85906190D01*
X215844646Y-85810952D01*
X215892265Y-85763333D01*
X216035122Y-85668095D01*
X216225598Y-85620476D01*
X216606550Y-85620476D01*
X216701788Y-85668095D01*
X216749407Y-85715714D01*
X216797026Y-85810952D01*
X216797026Y-86001428D01*
X216749407Y-86096666D01*
X216701788Y-86144285D01*
X216606550Y-86191904D01*
X216368455Y-86191904D01*
X216273217Y-86144285D01*
X216225598Y-86096666D01*
X216177979Y-86001428D01*
X216177979Y-85810952D01*
X216225598Y-85715714D01*
X216273217Y-85668095D01*
X216368455Y-85620476D01*
D11*
%TO.C,C19*%
X122821365Y-92268931D02*
X122821365Y-92550091D01*
X123841365Y-92268931D02*
X123841365Y-92550091D01*
%TO.C,R22*%
X124838623Y-95697011D02*
X124364107Y-95697011D01*
X124838623Y-96742011D02*
X124364107Y-96742011D01*
%TO.C,C2*%
X169335226Y-100680000D02*
X169054066Y-100680000D01*
X169335226Y-99660000D02*
X169054066Y-99660000D01*
%TO.C,R25*%
X125123865Y-80742253D02*
X125123865Y-81216769D01*
X124078865Y-80742253D02*
X124078865Y-81216769D01*
%TO.C,R14*%
X208801904Y-95837500D02*
X208327388Y-95837500D01*
X208801904Y-96882500D02*
X208327388Y-96882500D01*
%TO.C,C8*%
X211245226Y-99660000D02*
X210964066Y-99660000D01*
X211245226Y-100680000D02*
X210964066Y-100680000D01*
%TO.C,R21*%
X129918623Y-95697011D02*
X129444107Y-95697011D01*
X129918623Y-96742011D02*
X129444107Y-96742011D01*
%TO.C,R24*%
X131473865Y-85026769D02*
X131473865Y-84552253D01*
X130428865Y-85026769D02*
X130428865Y-84552253D01*
%TO.C,C10*%
X210964066Y-72740000D02*
X211245226Y-72740000D01*
X210964066Y-71720000D02*
X211245226Y-71720000D01*
%TO.C,R6*%
X166891904Y-96882500D02*
X166417388Y-96882500D01*
X166891904Y-95837500D02*
X166417388Y-95837500D01*
%TO.C,D8*%
X213664646Y-88740000D02*
X213664646Y-90690000D01*
X213664646Y-88740000D02*
X213664646Y-86790000D01*
X208544646Y-88740000D02*
X208544646Y-90690000D01*
X208544646Y-88740000D02*
X208544646Y-85290000D01*
%TO.C,R18*%
X214167146Y-80882742D02*
X214167146Y-81357258D01*
X213122146Y-80882742D02*
X213122146Y-81357258D01*
%TO.C,C13*%
X206784646Y-92409420D02*
X206784646Y-92690580D01*
X207804646Y-92409420D02*
X207804646Y-92690580D01*
%TO.C,R11*%
X165907146Y-84692742D02*
X165907146Y-85167258D01*
X164862146Y-84692742D02*
X164862146Y-85167258D01*
%TO.C,R8*%
X173527146Y-85167258D02*
X173527146Y-84692742D01*
X172482146Y-85167258D02*
X172482146Y-84692742D01*
%TO.C,R10*%
X171212146Y-80882742D02*
X171212146Y-81357258D01*
X172257146Y-80882742D02*
X172257146Y-81357258D01*
%TO.C,R23*%
X129318429Y-74189511D02*
X124964301Y-74189511D01*
X129318429Y-77609511D02*
X124964301Y-77609511D01*
%TO.C,C14*%
X127281945Y-99519511D02*
X127000785Y-99519511D01*
X127281945Y-100539511D02*
X127000785Y-100539511D01*
%TO.C,C7*%
X164874646Y-92409420D02*
X164874646Y-92690580D01*
X165894646Y-92409420D02*
X165894646Y-92690580D01*
%TO.C,R15*%
X213281710Y-74330000D02*
X208927582Y-74330000D01*
X213281710Y-77750000D02*
X208927582Y-77750000D01*
%TO.C,R27*%
X123853865Y-84552253D02*
X123853865Y-85026769D01*
X122808865Y-84552253D02*
X122808865Y-85026769D01*
%TO.C,D3*%
X166634646Y-88740000D02*
X166634646Y-85290000D01*
X171754646Y-88740000D02*
X171754646Y-90690000D01*
X171754646Y-88740000D02*
X171754646Y-86790000D01*
X166634646Y-88740000D02*
X166634646Y-90690000D01*
%TO.C,R26*%
X130203865Y-80742253D02*
X130203865Y-81216769D01*
X129158865Y-80742253D02*
X129158865Y-81216769D01*
%TO.C,R5*%
X171971904Y-96882500D02*
X171497388Y-96882500D01*
X171971904Y-95837500D02*
X171497388Y-95837500D01*
%TO.C,R7*%
X171371710Y-77750000D02*
X167017582Y-77750000D01*
X171371710Y-74330000D02*
X167017582Y-74330000D01*
%TO.C,R13*%
X213881904Y-96882500D02*
X213407388Y-96882500D01*
X213881904Y-95837500D02*
X213407388Y-95837500D01*
%TO.C,D13*%
X124581365Y-88599511D02*
X124581365Y-90549511D01*
X129701365Y-88599511D02*
X129701365Y-86649511D01*
X129701365Y-88599511D02*
X129701365Y-90549511D01*
X124581365Y-88599511D02*
X124581365Y-85149511D01*
%TO.C,C16*%
X127000785Y-72599511D02*
X127281945Y-72599511D01*
X127000785Y-71579511D02*
X127281945Y-71579511D01*
%TO.C,R9*%
X167177146Y-80882742D02*
X167177146Y-81357258D01*
X166132146Y-80882742D02*
X166132146Y-81357258D01*
%TO.C,R17*%
X208042146Y-80882742D02*
X208042146Y-81357258D01*
X209087146Y-80882742D02*
X209087146Y-81357258D01*
%TO.C,C4*%
X169054066Y-72740000D02*
X169335226Y-72740000D01*
X169054066Y-71720000D02*
X169335226Y-71720000D01*
%TO.C,R19*%
X206772146Y-84692742D02*
X206772146Y-85167258D01*
X207817146Y-84692742D02*
X207817146Y-85167258D01*
%TO.C,R16*%
X214392146Y-85167258D02*
X214392146Y-84692742D01*
X215437146Y-85167258D02*
X215437146Y-84692742D01*
%TD*%
M02*
